<svg xmlns="http://www.w3.org/2000/svg" viewBox="0 0 1605.82 311.96"><defs><style>.cls-1{fill:#5220d5;}.cls-2{fill:#333;}</style></defs><title>completo 6</title><g id="Capa_2" data-name="Capa 2"><g id="Capa_1-2" data-name="Capa 1"><path class="cls-1" d="M21.74,144.53A20.69,20.69,0,0,0,32,141.75l90.62-52.12a34.22,34.22,0,0,1,34.15,0l32.68,18.86A27.1,27.1,0,0,1,203,131.83l.08,26.69a22.33,22.33,0,0,0,33.58,19.3L258,165.43a34.46,34.46,0,0,0,17.13-29.49l.3-44.28a33.44,33.44,0,0,0-16.7-29.13l-47.49-27.4-5.56-3.21L159.44,5.21A39,39,0,0,0,140,0V1h0V0a39,39,0,0,0-19.48,5.22l-51.9,30-54,31.13A27.71,27.71,0,0,0,.8,90.47L1,124A20.76,20.76,0,0,0,21.74,144.53Z"/><path class="cls-1" d="M276.19,272.21l0-20A18.87,18.87,0,0,0,266.89,236l-58.34-34.26L160,173.26a43.81,43.81,0,0,0-44.07-.17L82.05,192.62a5.08,5.08,0,0,1-2.58.7,5.26,5.26,0,0,1-3.7-1.55,5.07,5.07,0,0,1-1.48-3.65l.08-19.18a13.33,13.33,0,0,0-3.88-9.55,13.73,13.73,0,0,0-9.66-4,13.37,13.37,0,0,0-7.7,2.46l-30,18L9,184.42c-.21.12-.39.25-.57.37A20.49,20.49,0,0,0,0,201.36L.11,241.1l.06,31.12L.22,292a20,20,0,0,0,30.1,17.23l42.54-24.81,24.26-14.12,22.6-13.18a35.25,35.25,0,0,1,35.5,0l87.57,51A22.21,22.21,0,0,0,254,311.16a22.53,22.53,0,0,0,15.85-6.62,21.94,21.94,0,0,0,6.43-15.72Z"/><path class="cls-2" d="M381.7,146.18h0a14.35,14.35,0,0,0,14.35,14.35H439.1a14.34,14.34,0,0,1,14.35,14.35v25.77A14.35,14.35,0,0,1,439.1,215H396.05a14.35,14.35,0,0,0-14.35,14.35v3.92a14.35,14.35,0,0,0,14.35,14.35h52.84A14.35,14.35,0,0,1,463.24,262v29a14.35,14.35,0,0,1-14.35,14.35H323.64A14.35,14.35,0,0,1,309.28,291V88.77a14.35,14.35,0,0,1,14.36-14.35H448.89a14.35,14.35,0,0,1,14.35,14.35v28.7a14.36,14.36,0,0,1-14.35,14.36H396.05A14.34,14.34,0,0,0,381.7,146.18Z"/><path class="cls-2" d="M658.78,273.06q-10.28,16-29.84,25.28t-46.65,9.29q-41.41,0-68.33-19.4-20-14.43-26.4-38.85a14.38,14.38,0,0,1,13.87-18.07h48.81a14.43,14.43,0,0,1,13.45,9.35q4,10.54,15.67,10.55a13.31,13.31,0,0,0,9-2.94c2.28-2,3.42-4.78,3.42-8.48q0-8.14-8.31-12.88T556.53,216q-21.87-7.17-36.37-14.68a72.66,72.66,0,0,1-25.28-22.18Q484.11,164.45,484.11,141q0-22.52,11.58-38.33t31.64-24q20.07-8.14,45.18-8.16,41.41,0,65.89,19.25,18,14.18,24,37.53a14.35,14.35,0,0,1-13.9,17.92h-49.9a14.27,14.27,0,0,1-13.33-9q-3.59-9.23-13.08-9.23a10.47,10.47,0,0,0-7.5,2.78q-2.94,2.78-2.94,8.31,0,7.51,8.32,12.23T596,161.18a278.51,278.51,0,0,1,36.7,15.5q14.5,7.66,25.44,22.5t10.93,38A64.91,64.91,0,0,1,658.78,273.06Z"/><path class="cls-2" d="M766.91,88.77V291a14.35,14.35,0,0,1-14.35,14.35H708.85A14.34,14.34,0,0,1,694.5,291V88.77a14.34,14.34,0,0,1,14.35-14.35h43.71A14.35,14.35,0,0,1,766.91,88.77Z"/><path class="cls-2" d="M1001.1,248.6a105.71,105.71,0,0,1-41.91,41.58Q932,305.36,895.75,305.35H813.88A14.35,14.35,0,0,1,799.52,291V88.77a14.35,14.35,0,0,1,14.36-14.35h81.87q36.19,0,63.44,14.68a103,103,0,0,1,41.91,40.77q14.68,26.1,14.68,59.36Q1015.78,222.19,1001.1,248.6ZM928,227.39q14.34-13.37,14.35-38.16T928,151.07q-14.35-13.37-38.82-13.37h-2.93a14.35,14.35,0,0,0-14.36,14.35v74.37a14.36,14.36,0,0,0,14.36,14.35h2.93Q913.69,240.77,928,227.39Z"/><path class="cls-2" d="M1114.28,146.18h0a14.36,14.36,0,0,0,14.35,14.35h43.06A14.35,14.35,0,0,1,1186,174.88v25.77A14.36,14.36,0,0,1,1171.69,215h-43.06a14.36,14.36,0,0,0-14.35,14.35v3.92a14.36,14.36,0,0,0,14.35,14.35h52.84A14.35,14.35,0,0,1,1195.83,262v29a14.35,14.35,0,0,1-14.36,14.35H1056.22A14.35,14.35,0,0,1,1041.87,291V88.77a14.35,14.35,0,0,1,14.35-14.35h125.25a14.35,14.35,0,0,1,14.36,14.35v28.7a14.36,14.36,0,0,1-14.36,14.36h-52.84A14.35,14.35,0,0,0,1114.28,146.18Z"/><path class="cls-2" d="M1500.8,88.77V291a14.35,14.35,0,0,1-14.35,14.35h-43.38A14.35,14.35,0,0,1,1428.71,291v-5.66c0-16.47-23.2-20-28.06-4.24l-4.36,14.13a14.35,14.35,0,0,1-13.72,10.12h-40.79a14.35,14.35,0,0,1-13.72-10.12l-4.36-14.13c-4.86-15.73-28.06-12.23-28.06,4.24V291a14.35,14.35,0,0,1-14.36,14.35h-43.7A14.35,14.35,0,0,1,1223.22,291V88.77a14.35,14.35,0,0,1,14.36-14.35h64.34a14.36,14.36,0,0,1,13.48,9.41l33.78,92c4.62,12.6,22.47,12.52,27-.11L1409,83.94a14.35,14.35,0,0,1,13.52-9.52h63.93A14.35,14.35,0,0,1,1500.8,88.77Z"/><path class="cls-2" d="M1605.82,88.77V291a14.34,14.34,0,0,1-14.35,14.35h-43.7A14.35,14.35,0,0,1,1533.41,291V88.77a14.35,14.35,0,0,1,14.36-14.35h43.7A14.34,14.34,0,0,1,1605.82,88.77Z"/></g></g></svg>